<svg xmlns="http://www.w3.org/2000/svg" width="256" height="256" viewBox="0 0 24 24">
    <g fill="none" stroke="dodgerblue" stroke-linecap="round" stroke-linejoin="round" stroke-width="2">
        <path
            d="M19.875 6.27A2.225 2.225 0 0 1 21 8.218v7.284c0 .809-.443 1.555-1.158 1.948l-6.75 4.27a2.269 2.269 0 0 1-2.184 0l-6.75-4.27A2.225 2.225 0 0 1 3 15.502V8.217c0-.809.443-1.554 1.158-1.947l6.75-3.98a2.33 2.33 0 0 1 2.25 0l6.75 3.98h-.033z" />
        <path d="M10 8v8h2a2 2 0 0 0 2-2v-4a2 2 0 0 0-2-2h-2z" />
    </g>
</svg>