<?xml version="1.0" standalone="no"?><!DOCTYPE svg PUBLIC "-//W3C//DTD SVG 1.1//EN" "http://www.w3.org/Graphics/SVG/1.1/DTD/svg11.dtd"><svg t="1682094376624" class="icon" viewBox="0 0 1024 1024" version="1.1" xmlns="http://www.w3.org/2000/svg" p-id="2456" xmlns:xlink="http://www.w3.org/1999/xlink" width="200" height="200"><path d="M139.636364 24.54497h548.305454L1008.484848 297.053091v572.136727a124.121212 124.121212 0 0 1-124.121212 124.121212H139.636364a124.121212 124.121212 0 0 1-124.121212-124.121212V148.666182a124.121212 124.121212 0 0 1 124.121212-124.121212z" fill="#2D6AEA" p-id="2457"></path><path d="M687.569455 20.417939v273.221819H1006.312727z" fill="#BED7FF" p-id="2458"></path><path d="M15.515152 496.826182h992.969696v496.484848H15.515152z" fill="#CEDBF8" p-id="2459"></path><path d="M233.472 630.008242m30.285576 0l363.271757 0q30.285576 0 30.285576 30.285576l0-0.03103q0 30.285576-30.285576 30.285576l-363.271757 0q-30.285576 0-30.285576-30.285576l0 0.03103q0-30.285576 30.285576-30.285576Z" fill="#FFFFFF" p-id="2460"></path><path d="M242.998303 172.032A98.924606 98.924606 0 0 1 341.829818 73.169455 98.924606 98.924606 0 0 1 440.630303 172.032a98.924606 98.924606 0 0 1-98.800485 98.800485A98.924606 98.924606 0 0 1 242.967273 172.032z m-82.168242 255.069091c2.110061-23.893333 13.591273-108.606061 101.779394-153.910303a127.906909 127.906909 0 0 0 158.81309-0.310303c88.529455 45.180121 99.234909 129.241212 101.376 154.220606-0.527515 0.496485-361.44097 0-361.968484 0z" fill="#CEDBF8" p-id="2461"></path><path d="M233.472 739.017697m30.285576 0l363.271757 0q30.285576 0 30.285576 30.285576l0-0.031031q0 30.285576-30.285576 30.285576l-363.271757 0q-30.285576 0-30.285576-30.285576l0 0.031031q0-30.285576 30.285576-30.285576Z" fill="#FFFFFF" p-id="2462"></path><path d="M233.472 847.996121m30.285576 0l435.913697 0q30.285576 0 30.285575 30.285576l0-0.03103q0 30.285576-30.285575 30.285575l-435.913697 0q-30.285576 0-30.285576-30.285575l0 0.03103q0-30.285576 30.285576-30.285576Z" fill="#FFFFFF" p-id="2463"></path></svg>